<svg width="534" height="534" viewBox="0 0 534 534" fill="none" xmlns="http://www.w3.org/2000/svg">
<path d="M402.586 185.369C394.539 185.557 387.117 185.551 379.721 185.992C373.41 186.368 367.138 187.391 360.827 187.81C359.538 187.895 358.154 186.569 356.814 185.894C358.085 184.868 359.297 183.044 360.636 182.946C370.653 182.209 374.914 173.935 380.925 167.933C386.914 161.952 392.711 155.731 399.194 150.338C400.441 149.3 405.126 150.833 407.102 152.508C416.269 160.276 425.091 168.457 433.9 176.638C435.293 177.931 435.984 179.979 437 181.679C435.348 182.059 433.714 182.628 432.041 182.787C422.441 183.702 412.83 184.519 402.586 185.369ZM408.322 164.962C407.26 165.966 406.198 166.969 405.135 167.973C406.663 168.204 408.191 168.435 409.718 168.667C409.465 167.645 409.212 166.622 408.322 164.962Z" fill="black"/>
<path d="M104.332 344.798C117.24 348.999 129.463 353.351 141.82 357.284C144.514 358.142 147.743 357.172 150.613 357.68C152.236 357.968 153.629 359.551 155.126 360.551C153.844 361.252 152.563 362.547 151.28 362.549C146.216 362.555 140.925 363.007 136.134 361.731C125.885 359.003 115.893 355.309 105.802 351.992C105.248 351.81 104.78 351.367 104.226 351.19C102.161 350.528 100.077 349.927 98 349.303C99.8981 347.801 101.796 346.299 104.332 344.798Z" fill="black"/>
<path d="M386.016 266.996C386.866 260.147 387.558 253.907 388.652 247.738C389.027 245.63 390.975 244.417 392.138 247.143C393.273 249.807 393.773 252.86 393.961 255.78C394.187 259.304 394.768 263.286 393.47 266.333C390.322 273.717 386.267 280.727 382.322 287.744C381.776 288.716 379.786 288.876 378.465 289.413C378.297 287.816 377.518 285.96 378.066 284.668C380.509 278.902 383.331 273.297 386.016 266.996Z" fill="black"/>
<path d="M348.735 339.377C343.789 344.326 339.186 348.979 334.51 353.558C333.832 354.222 332.772 354.97 331.945 354.91C330.19 354.781 328.472 354.145 326.739 353.717C327.521 352.515 328.161 351.187 329.107 350.132C337.146 341.164 345.178 332.187 353.395 323.382C354.466 322.235 356.569 322.051 358.194 321.421C357.998 323.172 358.333 325.243 357.507 326.615C354.925 330.904 351.904 334.93 348.735 339.377Z" fill="black"/>
<path d="M262.381 381.785C260.122 379.902 260.794 377.181 263.343 376.749C271.903 375.3 280.491 373.934 289.118 373.015C290.968 372.818 293.084 374.548 294.903 375.672C295.059 375.768 294.08 378.943 293.322 379.088C285.413 380.6 277.461 381.936 269.475 382.957C267.406 383.221 265.175 382.21 262.381 381.785Z" fill="black"/>
<path d="M192.596 377.64C191.733 377.108 191.099 377.009 190.658 376.664C188.706 375.134 184.981 373.123 185.225 372.032C186.047 368.365 189.654 369.946 191.997 370.403C199.363 371.84 206.644 373.717 213.965 375.39C214.567 375.527 215.515 375.139 215.811 375.455C217.25 376.997 218.522 378.695 219.854 380.337C217.732 380.82 215.52 381.95 213.506 381.667C206.605 380.698 199.773 379.234 192.596 377.64Z" fill="black"/>
<path d="M405.453 211.834C403.004 216.764 401.089 217.304 399.677 213.447C397.445 207.347 396.125 200.839 395.185 194.392C394.97 192.915 397.869 190.982 399.335 189.259C400.418 190.463 402.214 191.535 402.463 192.892C403.591 199.056 404.284 205.3 405.453 211.834Z" fill="black"/>
</svg>
